<?xml version="1.0" encoding="utf-8"?>
<!-- Generator: Adobe Illustrator 14.0.0, SVG Export Plug-In . SVG Version: 6.00 Build 43363)  -->
<!DOCTYPE svg PUBLIC "-//W3C//DTD SVG 1.1//EN" "http://www.w3.org/Graphics/SVG/1.1/DTD/svg11.dtd">
<svg version="1.1" id="Layer_1" xmlns="http://www.w3.org/2000/svg" xmlns:xlink="http://www.w3.org/1999/xlink" x="0px" y="0px"
	 width="100px" height="100px" viewBox="0 0 100 100" enable-background="new 0 0 100 100" xml:space="preserve">
<path fill="#FFFFFF" d="M11.104,64.725c14.807,14.807,38.812,14.807,53.618,0c14.807-14.808,14.807-38.813,0-53.62
	c-14.807-14.807-38.812-14.807-53.618,0C-3.703,25.912-3.703,49.917,11.104,64.725z M15.337,15.339
	c12.469-12.469,32.684-12.468,45.153,0c12.468,12.468,12.468,32.684,0,45.153c-12.47,12.468-32.685,12.468-45.153,0
	C2.869,48.022,2.869,27.808,15.337,15.339z"/>
<rect x="75.671" y="61.7" transform="matrix(0.7071 -0.7071 0.7071 0.7071 -33.8215 81.663)" fill="#FFFFFF" width="11.973" height="39.909"/>
</svg>
